<?xml version="1.0"?>
<svg xmlns="http://www.w3.org/2000/svg" xmlns:xlink="http://www.w3.org/1999/xlink" xmlns:svgjs="http://svgjs.com/svgjs" version="1.1" width="512" height="512" x="0" y="0" viewBox="0 0 512 512" style="enable-background:new 0 0 512 512" xml:space="preserve" class=""><g><g xmlns="http://www.w3.org/2000/svg"><path d="m456 224v-24a8 8 0 0 0 -8-8h-8.18c-4.21-97.76-85.04-176-183.82-176s-179.61 78.24-183.82 176h-8.18a8 8 0 0 0 -8 8v24a48.051 48.051 0 0 0 -48 48v96a48.051 48.051 0 0 0 48 48h8v16a48.051 48.051 0 0 0 48 48h104v8a8 8 0 0 0 8 8h64a8 8 0 0 0 8-8v-32a8 8 0 0 0 -8-8h-64a8 8 0 0 0 -8 8v8h-104a32.036 32.036 0 0 1 -32-32v-16h32a8 8 0 0 0 8-8v-16h4a28.031 28.031 0 0 0 28-28v-88a28.031 28.031 0 0 0 -28-28h-4v-48c0-74.99 61.01-136 136-136s136 61.01 136 136v48h-4a28.031 28.031 0 0 0 -28 28v88a28.031 28.031 0 0 0 28 28h4v16a8 8 0 0 0 8 8h56a48.051 48.051 0 0 0 48-48v-96a48.051 48.051 0 0 0 -48-48zm-224 240h48v16h-48zm160-88h-4a12.01 12.01 0 0 1 -12-12v-88a12.01 12.01 0 0 1 12-12h4zm48-168v16h-32v-16zm-336 192h-48a32.036 32.036 0 0 1 -32-32v-96a32.036 32.036 0 0 1 32-32h48zm0-176h-32v-16h32zm20 40a12.01 12.01 0 0 1 12 12v88a12.01 12.01 0 0 1 -12 12h-4v-112zm132-216c-81.13 0-147.62 63.89-151.79 144h-16.02c4.2-88.94 77.86-160 167.81-160s163.61 71.06 167.81 160h-16.02c-4.17-80.11-70.66-144-151.79-144zm232 320a32.036 32.036 0 0 1 -32 32h-48v-160h48a32.036 32.036 0 0 1 32 32z" fill="#301a93" data-original="#000000" style="" class=""/><path d="m256 104a96 96 0 1 0 96 96 96.115 96.115 0 0 0 -96-96zm-31.43 22.44q-2.175 3.72-4.14 8.02c-7.14 15.72-11.41 35.91-12.26 57.54h-31.77a80.185 80.185 0 0 1 48.17-65.56zm-48.17 81.56h31.77c.85 21.63 5.12 41.82 12.26 57.54q1.965 4.29 4.14 8.02a80.185 80.185 0 0 1 -48.17-65.56zm71.6 68.95c-4.64-3.44-9.19-9.66-13-18.03-6.24-13.73-10.01-31.58-10.83-50.92h23.83zm0-84.95h-23.83c.82-19.34 4.59-37.19 10.83-50.92 3.81-8.37 8.36-14.59 13-18.03zm87.6 0h-31.77c-.85-21.63-5.12-41.82-12.26-57.54q-1.965-4.29-4.14-8.02a80.185 80.185 0 0 1 48.17 65.56zm-71.6-68.95c4.64 3.44 9.19 9.66 13 18.03 6.24 13.73 10.01 31.58 10.83 50.92h-23.83zm0 153.9v-68.95h23.83c-.82 19.34-4.59 37.19-10.83 50.92-3.81 8.37-8.36 14.59-13 18.03zm23.43-3.39q2.175-3.72 4.14-8.02c7.14-15.72 11.41-35.91 12.26-57.54h31.77a80.185 80.185 0 0 1 -48.17 65.56z" fill="#301a93" data-original="#000000" style="" class=""/></g></g></svg>
