<?xml version="1.0"?>
<svg xmlns="http://www.w3.org/2000/svg" xmlns:xlink="http://www.w3.org/1999/xlink" xmlns:svgjs="http://svgjs.com/svgjs" version="1.1" width="512" height="512" x="0" y="0" viewBox="0 0 512 512" style="enable-background:new 0 0 512 512" xml:space="preserve" class=""><g><rect xmlns="http://www.w3.org/2000/svg" fill="#f7cc38" height="288" rx="32" width="384" x="24" y="88" data-original="#f7cc38" style="" class=""/><path xmlns="http://www.w3.org/2000/svg" d="m24 392a32 32 0 0 0 32 32h320a32 32 0 0 0 32-32v-224a32 32 0 0 0 -32-32h-176v-64a32 32 0 0 0 -32-32h-112a32 32 0 0 0 -32 32z" fill="#fbe36a" data-original="#fbe36a" style="" class=""/><circle xmlns="http://www.w3.org/2000/svg" cx="384" cy="368" fill="#381bce" r="104" data-original="#6ed2f0" style="" class=""/><g xmlns="http://www.w3.org/2000/svg" fill="#e9eef2"><path d="m455.049 329.344a8 8 0 0 0 -11.094 2.218l-4.92 7.38a64 64 0 0 0 -118.262-6.375 8 8 0 0 0 14.454 6.866 48 48 0 0 1 88.25 3.529l-8.428-5.618a8 8 0 1 0 -8.875 13.312l24 16a8 8 0 0 0 11.094-2.218l16-24a8 8 0 0 0 -2.219-11.094z" fill="#e73b09" data-original="#e9eef2" style="" class=""/><path d="m443.433 392.773a8 8 0 0 0 -10.66 3.794 48 48 0 0 1 -88.25-3.529l8.428 5.618a8 8 0 1 0 8.875-13.312l-24-16a8 8 0 0 0 -11.094 2.218l-16 24a8 8 0 1 0 13.313 8.876l4.92-7.38a64 64 0 0 0 118.262 6.375 8 8 0 0 0 -3.794-10.66z" fill="#e73b09" data-original="#e9eef2" style="" class=""/></g></g></svg>
