<?xml version="1.0"?>
<svg xmlns="http://www.w3.org/2000/svg" xmlns:xlink="http://www.w3.org/1999/xlink" xmlns:svgjs="http://svgjs.com/svgjs" version="1.1" width="512" height="512" x="0" y="0" viewBox="0 0 464 464" style="enable-background:new 0 0 512 512" xml:space="preserve"><g><path xmlns="http://www.w3.org/2000/svg" d="m35.3125 264.003906 228.6875-228.6875 11.3125 11.3125-228.6875 228.6875zm0 0" fill="#3300aa" data-original="#000000" style=""/><path xmlns="http://www.w3.org/2000/svg" d="m301.65625 20.28125c5.488281-5.457031 15.214844-5.433594 20.671875-.023438l15.046875 15.046876 11.3125-11.304688-15.03125-15.03125c-5.703125-5.695312-13.59375-8.96875-21.65625-8.96875s-15.953125 3.273438-21.65625 8.96875l-15.03125 15.03125 11.3125 11.3125zm0 0" fill="#3300aa" data-original="#000000" style=""/><path xmlns="http://www.w3.org/2000/svg" d="m282.625 133.945312c-3.832031-3.832031-8.929688-5.945312-14.34375-5.945312-11.175781 0-20.28125 9.105469-20.28125 20.289062 0 5.421876 2.113281 10.511719 5.9375 14.34375l47.4375 47.429688c3.832031 3.824219 8.929688 5.9375 14.34375 5.9375 11.175781 0 20.28125-9.105469 20.28125-20.289062 0-5.421876-2.113281-10.511719-5.9375-14.34375zm0 0" fill="#3300aa" data-original="#000000" style=""/><path xmlns="http://www.w3.org/2000/svg" d="m163.308594 288.003906 20.6875-20.683594 12.6875 12.6875-20.6875 20.6875zm0 0" fill="#3300aa" data-original="#000000" style=""/><path xmlns="http://www.w3.org/2000/svg" d="m348.691406 46.640625 11.316406-11.3125 68.683594 68.683594-11.3125 11.3125zm0 0" fill="#3300aa" data-original="#000000" style=""/><path xmlns="http://www.w3.org/2000/svg" d="m32.558594 312 119.441406 119.441406 279.441406-279.441406-119.441406-119.441406zm138.753906 72c-5.167969 5.160156-12.023438 8-19.3125 8-7.304688 0-14.167969-2.839844-19.3125-8l-2.34375-2.335938 11.3125-11.3125 2.34375 2.335938c4.230469 4.242188 11.753906 4.257812 16 0l12.6875-12.6875-20.6875-20.6875c-4.246094-4.25-11.769531-4.234375-16 0l-4.6875 4.6875c-10.328125 10.320312-28.296875 10.320312-38.625 0l-32-32 24-24c10.289062-10.304688 28.289062-10.328125 38.625 0l2.34375 2.34375-11.3125 11.3125-2.34375-2.34375c-4.257812-4.25-11.769531-4.234375-16 0l-12.6875 12.6875 20.6875 20.6875c4.28125 4.273438 11.71875 4.28125 16 0l4.6875-4.6875c10.28125-10.304688 28.28125-10.328125 38.625 0l32 32zm4.6875-60.6875-35.3125-35.3125 43.3125-43.3125 35.3125 35.3125zm80-24-15.367188-15.367188-15.136718-75.65625c-.566406-2.839843-1.953125-5.425781-4-7.472656l-4.527344-4.527344c-2.730469-2.730468-6.488281-4.289062-10.34375-4.289062-8.066406 0-14.625 6.558594-14.625 14.632812 0 3.902344 1.519531 7.582032 4.28125 10.351563l9.375 9.367187-11.3125 11.3125-9.375-9.367187c-5.785156-5.800781-8.96875-13.488281-8.96875-21.664063 0-16.898437 13.742188-30.632812 30.625-30.632812 8.191406 0 15.871094 3.183594 21.65625 8.976562l4.527344 4.519532c4.289062 4.296875 7.183594 9.703125 8.375 15.65625l14.175781 70.902344.640625.632812 34.34375-34.34375 11.3125 11.3125zm59.71875-67.3125c-9.6875 0-18.796875-3.777344-25.65625-10.632812l-47.4375-47.429688c-6.847656-6.847656-10.625-15.953125-10.625-25.648438 0-20.007812 16.273438-36.289062 36.28125-36.289062 9.6875 0 18.808594 3.777344 25.65625 10.632812l47.4375 47.429688c6.847656 6.847656 10.625 15.953125 10.625 25.648438 0 20.007812-16.273438 36.289062-36.28125 36.289062zm70.625-66.34375-72.910156-72.914062 6.328125 25.3125-15.515625 3.882812-9.101563-36.394531 16.855469-16.855469 85.65625 85.65625zm0 0" fill="#3300aa" data-original="#000000" style=""/><path xmlns="http://www.w3.org/2000/svg" d="m162.34375 443.71875c-2.742188 2.730469-6.511719 4.28125-10.34375 4.28125-3.839844 0-7.601562-1.550781-10.328125-4.265625l-15.046875-15.046875-11.3125 11.3125 15.03125 15.03125c5.703125 5.695312 13.59375 8.96875 21.65625 8.96875s15.953125-3.273438 21.65625-8.96875l15.03125-15.03125-11.3125-11.3125zm0 0" fill="#3300aa" data-original="#000000" style=""/><path xmlns="http://www.w3.org/2000/svg" d="m20.28125 322.34375c-2.730469-2.742188-4.28125-6.511719-4.28125-10.34375s1.550781-7.601562 4.265625-10.328125l15.046875-15.046875-11.3125-11.3125-15.03125 15.03125c-5.785156 5.785156-8.96875 13.480469-8.96875 21.65625s3.183594 15.871094 8.96875 21.65625l15.03125 15.03125 11.3125-11.3125zm0 0" fill="#3300aa" data-original="#000000" style=""/><path xmlns="http://www.w3.org/2000/svg" d="m455.03125 130.34375-15.03125-15.03125-11.3125 11.3125 15.03125 15.03125c2.730469 2.742188 4.28125 6.511719 4.28125 10.34375s-1.550781 7.601562-4.265625 10.328125l-15.046875 15.046875 11.3125 11.3125 15.03125-15.03125c5.785156-5.785156 8.96875-13.480469 8.96875-21.65625s-3.183594-15.871094-8.96875-21.65625zm0 0" fill="#3300aa" data-original="#000000" style=""/><path xmlns="http://www.w3.org/2000/svg" d="m188.6875 417.390625 228.6875-228.6875 11.3125 11.3125-228.6875 228.6875zm0 0" fill="#3300aa" data-original="#000000" style=""/><path xmlns="http://www.w3.org/2000/svg" d="m35.300781 360.011719 11.316407-11.3125 68.683593 68.683593-11.3125 11.316407zm0 0" fill="#3300aa" data-original="#000000" style=""/></g></svg>
