<?xml version="1.0"?>
<svg xmlns="http://www.w3.org/2000/svg" xmlns:xlink="http://www.w3.org/1999/xlink" xmlns:svgjs="http://svgjs.com/svgjs" version="1.1" width="512" height="512" x="0" y="0" viewBox="0 0 512 512" style="enable-background:new 0 0 512 512" xml:space="preserve" class=""><g><path xmlns="http://www.w3.org/2000/svg" d="m56.013 224.006a24.019 24.019 0 0 1 -23.131-30.453 233.817 233.817 0 0 1 81.818-121.425 231.5 231.5 0 0 1 282.608 0 233.815 233.815 0 0 1 81.814 121.425 24 24 0 0 1 -46.236 12.894 185.51 185.51 0 0 0 -64.919-96.331 183.5 183.5 0 0 0 -223.925 0 185.505 185.505 0 0 0 -64.92 96.331 24.011 24.011 0 0 1 -23.109 17.559z" fill="#de3f04" data-original="#8690fa" style="" class=""/><path xmlns="http://www.w3.org/2000/svg" d="m56 224a24 24 0 0 1 -23.964-22.669l-8-144a24 24 0 1 1 47.924-2.662l6.32 113.761 106.941-31.454a24 24 0 1 1 13.543 46.048l-135.995 40a23.947 23.947 0 0 1 -6.769.976z" fill="#de3f04" data-original="#5153ff" style="" class=""/><path xmlns="http://www.w3.org/2000/svg" d="m248 488a229.152 229.152 0 0 1 -141.3-48.128 233.817 233.817 0 0 1 -81.818-121.425 24 24 0 1 1 46.236-12.894 185.505 185.505 0 0 0 64.92 96.331 183.5 183.5 0 0 0 223.925 0 185.51 185.51 0 0 0 64.919-96.331 24 24 0 0 1 46.236 12.894 233.815 233.815 0 0 1 -81.818 121.425 229.152 229.152 0 0 1 -141.3 48.128z" fill="#de3f04" data-original="#8690fa" style="" class=""/><path xmlns="http://www.w3.org/2000/svg" d="m455.979 480a24 24 0 0 1 -23.941-22.67l-6.32-113.76-106.941 31.454a24 24 0 0 1 -13.544-46.049l136-40a24 24 0 0 1 30.735 21.693l8 144a24 24 0 0 1 -22.631 25.294q-.686.038-1.358.038z" fill="#de3f04" data-original="#5153ff" style="" class=""/></g></svg>
